<?xml version="1.0" encoding="UTF-8" standalone="no"?>
<svg
   height="264"
   viewBox="0 0 264 264"
   width="264"
   version="1.1"
   id="svg2"
   sodipodi:docname="logo-plain.svg"
   inkscape:version="1.4.3 (0d15f75, 2025-12-25)"
   xmlns:inkscape="http://www.inkscape.org/namespaces/inkscape"
   xmlns:sodipodi="http://sodipodi.sourceforge.net/DTD/sodipodi-0.dtd"
   xmlns="http://www.w3.org/2000/svg"
   xmlns:svg="http://www.w3.org/2000/svg">
  <defs
     id="defs2" />
  <sodipodi:namedview
     id="namedview2"
     pagecolor="#505050"
     bordercolor="#eeeeee"
     borderopacity="1"
     inkscape:showpageshadow="0"
     inkscape:pageopacity="0"
     inkscape:pagecheckerboard="0"
     inkscape:deskcolor="#505050"
     inkscape:zoom="1.9080229"
     inkscape:cx="66.823097"
     inkscape:cy="168.49902"
     inkscape:window-width="2560"
     inkscape:window-height="1382"
     inkscape:window-x="-1"
     inkscape:window-y="30"
     inkscape:window-maximized="0"
     inkscape:current-layer="svg2" />
  <g
     fill="none"
     fill-rule="evenodd"
     transform="matrix(1.1747476,0,0,1.1747476,30.941898,9.5434314)"
     id="g2">
    <path
       d="m 110.7306,109.43063 c 1.23999,5.31062 -1.51013,11.04744 -1.31884,11.51893 0.60237,1.48664 22.20898,14.86472 18.19539,24.47082 -4.01192,9.60946 -14.56101,0.0185 -18.26419,1.91451 -3.23839,1.66114 3.96493,22.61 1.6645,33.37052 -0.74835,3.50853 -1.9229,3.80888 -5.16129,2.61252 -5.871046,-2.1662 -11.478662,-4.24179 -16.638273,-6.14623 -2.328956,-0.86245 -2.661185,-2.50681 -3.184696,-4.79886 -1.152733,-5.07235 -1.94639,-12.82939 -3.691429,-13.47539 -1.751751,-0.64432 -7.396281,4.73845 -11.569274,7.84261 -1.882628,1.40107 -3.206509,2.43634 -5.538821,1.57389 -5.161288,-1.90612 -10.767227,-3.97164 -16.639954,-6.13952 -3.235034,-1.19635 -3.934728,-2.18968 -2.223247,-5.34082 5.245185,-9.6749 24.336583,-20.91362 22.953975,-24.27954 -1.583958,-3.85251 -15.831195,-3.41457 -12.636432,-13.32438 2.008473,-6.22844 12.669991,-7.01203 20.670324,-6.91807 C 74.606618,94.042403 71.588036,4.5185423 68.517438,1.1845109 64.935075,-2.7015569 44.942632,3.921202 34.891878,7.4381269 22.440017,11.800725 3.2395535,21.745769 1.0095949,24.834824 c -2.0839794,2.884348 -0.71143901,7.350977 2.0185404,10.069211 2.7316573,2.714878 8.7772107,-0.885943 13.6868117,5.557279 4.9096,6.444899 3.946473,132.955196 2.696421,138.275886 -1.250052,5.32069 -12.7639545,8.16142 -14.3328118,12.24212 -1.5705352,4.08407 -0.8037247,6.17308 2.3826495,8.76379 3.1863743,2.59239 142.0428243,7.9953 149.0464743,0 8.21343,-9.36952 7.25701,-57.0309 8.5725,-61.74418 1.32724,-4.74684 9.94673,-5.66802 12.10621,-10.3511 2.16117,-4.67973 6.03381,-14.76068 1.15609,-16.0057 -10.9367,-2.79039 -42.72829,-3.88103 -67.61188,-2.2115 z"
       fill="#ec3645"
       id="path1"
       style="fill:#1a1a1a" />
  </g>
</svg>
