<svg enable-background="new 0 0 100 100" viewBox="0 0 100 100" xmlns="http://www.w3.org/2000/svg"><path clip-rule="evenodd" d="m99.992 43.019c.578-13.757-32.354-20.455-33.781-22.023-.711-.78 1.65-21.011-16.211-20.996-17.861-.015-15.501 20.216-16.212 20.996-1.427 1.568-34.357 8.266-33.78 22.023.576 13.758 18.051 6.692 21.778 10.741 3.26 3.544-15.279 26.229-17.353 40.634-.676 4.695.644 5.606 5.207 5.606 8.276 0 16.177-.005 23.453-.005 3.287 0 4.456-1.889 6.152-4.492 3.754-5.762 8.288-15.024 10.755-15.023 2.466-.001 7.001 9.261 10.755 15.022 1.696 2.604 2.864 4.492 6.151 4.492 7.275 0 15.177.005 23.453.005 4.563 0 5.884-.911 5.207-5.606-2.073-14.405-20.611-37.09-17.353-40.634 3.727-4.048 21.204 3.018 21.779-10.74z" fill-rule="evenodd"/></svg>